<svg width="222" height="40" viewBox="0 0 222 40" fill="none" xmlns="http://www.w3.org/2000/svg">
    <path fill-rule="evenodd" clip-rule="evenodd" d="M213.656 29.4529C213.381 29.4529 212.538 29.4529 211.986 29.4529C206.805 29.4529 207.307 20.3989 207.307 18.1359C208.52 17.6839 210.342 16.8209 210.99 15.3939C211.636 13.9749 211.543 12.7019 210.275 12.7019C207.956 12.7019 206.416 16.3739 206.07 17.9699C205.074 22.5539 203.614 29.4529 203.614 29.4529H198.284L203.965 1.33192C203.965 1.33192 209.656 0.841916 208.644 5.86292C208.477 6.70592 207.909 9.19592 207.277 12.0189C213.97 5.61092 217.649 11.1989 215.327 15.0489C214.939 15.6929 213.753 17.1139 212.32 17.7929C212.32 22.4909 213.181 26.7089 215.662 26.7089C218.066 26.7089 219.337 22.2509 219.337 22.2509C219.337 22.2509 220.127 22.2509 221.008 22.2509C220.004 24.6219 217.57 29.4529 213.656 29.4529ZM195.033 29.4529H189.371L192.368 15.0949C192.368 15.0949 192.387 12.7029 190.701 12.7029C188.382 12.7029 186.174 16.3739 185.827 17.9699C184.832 22.5539 183.371 29.4529 183.371 29.4529H178.042C178.434 26.8809 182.052 9.21992 182.052 9.21992C182.052 9.21992 187.448 8.01192 187.035 12.0189C193.728 5.61092 198.366 11.7539 197.698 15.0949C197.549 15.8369 195.033 29.4529 195.033 29.4529ZM173.505 6.81892L174.508 1.33192C174.508 1.33192 180.199 0.841916 179.187 5.86292C179.069 6.63492 173.505 6.81892 173.505 6.81892ZM174.49 29.4529H169.161C169.553 26.8809 172.837 9.21992 172.837 9.21992H178.518L174.49 29.4529ZM161.617 27.1139C162.869 27.6409 166.296 28.0809 166.296 28.0809L165.962 29.4529C165.962 29.4529 162.697 29.4529 158.61 29.4529C155.279 29.4529 154.579 26.3659 154.934 23.6229C155.288 20.8789 158.474 6.52392 158.61 5.78992C159.348 1.79292 165.293 1.33192 165.293 1.33192C165.293 1.33192 161.267 20.7329 160.708 23.6229C160.177 26.3649 160.486 26.6379 161.617 27.1139Z" fill="#006BC5"/>
    <path fill-rule="evenodd" clip-rule="evenodd" d="M153.068 15.0489C152.659 17.9719 151.746 21.5199 151.251 23.9659C150.504 27.6559 146.962 29.7959 143.001 29.7959C142.861 29.7959 142.742 29.7959 142.634 29.7959C142.612 29.7959 141.089 29.7959 140.605 29.7959C140.522 29.7959 140.434 29.7959 140.333 29.7959C136.851 29.7959 133.728 27.8599 134.272 23.9659C134.633 21.3859 135.487 17.9269 136.07 15.0489C136.817 11.3599 140.365 9.21985 144.331 9.21985C144.471 9.21985 144.589 9.21985 144.698 9.21985C144.72 9.21985 146.243 9.21985 146.728 9.21985C146.81 9.21985 146.899 9.21985 147 9.21985C150.486 9.21985 153.613 11.1549 153.068 15.0489ZM145.357 11.2769C144.128 11.2769 142.395 11.3599 141.726 14.3639C141.167 16.8759 140.245 21.2249 139.922 23.2799C139.49 26.0229 140.739 27.0519 141.967 27.0519C143.194 27.0519 144.925 26.9689 145.593 23.9659C146.254 20.9959 147.13 16.7839 147.403 15.0489C147.836 12.3059 146.586 11.2769 145.357 11.2769ZM130.07 29.4529H124.408L127.406 15.0949C127.406 15.0949 127.424 12.7019 125.738 12.7019C123.438 12.7019 121.44 15.2629 120.88 17.9059C120.101 22.0979 118.741 29.4529 118.741 29.4529H113.079L116.077 15.0949C116.077 15.0949 116.096 12.7019 114.409 12.7019C112.09 12.7019 110.208 15.1709 109.536 17.9699C108.44 22.5299 107.079 29.4529 107.079 29.4529H101.75C102.142 26.8808 105.76 9.21985 105.76 9.21985C105.76 9.21985 111.156 8.01185 110.743 12.0189C116.145 6.84685 120.207 9.85085 121.222 12.9589C121.361 12.7529 121.615 12.4519 122.072 12.0189C128.824 5.61085 133.403 11.7539 132.735 15.0949C132.587 15.8369 130.07 29.4529 130.07 29.4529ZM99.4039 23.9659C98.6569 27.6559 95.1149 29.7959 91.1529 29.7959C91.0139 29.7959 90.8949 29.7959 90.7869 29.7959C90.7649 29.7959 89.2419 29.7959 88.7579 29.7959C88.6749 29.7959 88.5859 29.7959 88.4859 29.7959C85.0039 29.7959 81.8809 27.8599 82.4249 23.9659C82.7859 21.3859 83.6399 17.9269 84.2229 15.0489C84.9699 11.3599 88.5169 9.21985 92.4839 9.21985C92.6239 9.21985 92.7419 9.21985 92.8509 9.21985C92.8729 9.21985 94.3959 9.21985 94.8799 9.21985C94.9629 9.21985 95.0519 9.21985 95.1529 9.21985C98.6389 9.21985 101.766 11.1549 101.221 15.0489C100.811 17.9719 99.8989 21.5199 99.4039 23.9659ZM93.5099 11.2769C92.2809 11.2769 90.5479 11.3599 89.8789 14.3639C89.3199 16.8759 88.3979 21.2249 88.0749 23.2799C87.6429 26.0229 88.8919 27.0519 90.1189 27.0519C91.3469 27.0519 93.0779 26.9689 93.7459 23.9659C94.4069 20.9959 95.2829 16.7839 95.5559 15.0489C95.9889 12.3059 94.7389 11.2769 93.5099 11.2769ZM77.6399 14.7069C77.6399 14.7069 77.6399 13.7469 77.6399 12.6489C75.0119 12.6489 72.9169 14.8369 72.0839 17.9329C70.8609 22.4749 69.6189 29.4529 69.6189 29.4529H64.2729C64.6659 26.8719 68.2829 9.21985 68.2829 9.21985C68.2829 9.21985 73.7059 7.98285 73.2949 11.9629C76.1759 7.89385 82.3179 9.56185 82.3179 9.56185L80.9809 15.0489L77.6399 14.7069ZM62.0759 23.9659C61.2819 27.6559 57.6989 29.7959 53.7209 29.7959C53.5809 29.7959 53.4619 29.7959 53.3529 29.7959C53.3309 29.7959 53.1439 29.7959 52.6579 29.7959C52.5749 29.7959 49.8119 29.7959 49.7109 29.7959C49.4939 30.8639 49.1779 32.1479 49.0429 32.8819C48.3049 36.8779 42.3589 37.3399 42.3589 37.3399C42.3589 37.3399 46.3249 17.9269 46.9449 15.0489C47.7399 11.3599 51.3269 9.21985 55.3099 9.21985C55.4499 9.21985 55.5689 9.21985 55.6779 9.21985C55.7009 9.21985 57.2239 9.21985 57.7109 9.21985C57.7939 9.21985 57.8829 9.21985 57.9849 9.21985C61.4849 9.21985 64.6019 11.1549 64.0079 15.0489C63.5609 17.9719 62.6019 21.5199 62.0759 23.9659ZM56.3129 11.2769C55.0779 11.2769 53.3409 11.3599 52.6329 14.3639C52.0409 16.8759 51.0629 21.2249 50.7139 23.2799C50.4079 25.0779 50.0449 27.0519 50.0449 27.0519C50.0449 27.0519 52.9619 27.0519 53.3869 27.0519C54.6189 27.0519 55.6879 26.9689 56.3949 23.9659C57.0939 20.9959 58.0239 16.7839 58.3189 15.0489C58.7869 12.3059 57.5469 11.2769 56.3129 11.2769Z" fill="#003F8E"/>
    <path fill-rule="evenodd" clip-rule="evenodd" d="M35.008 0L0 22.586L15.733 26.949L35.008 0Z" fill="#003F8E"/>
    <path fill-rule="evenodd" clip-rule="evenodd" d="M35.0079 0L33.0119 2.007L16.0119 25.007L15.7329 26.949L25.9589 39.01L35.0079 0Z" fill="#006BC5"/>
</svg>
