<svg width="222" height="40" viewBox="0 0 222 40" fill="none" xmlns="http://www.w3.org/2000/svg">
    <path fill-rule="evenodd" clip-rule="evenodd" d="M213.656 29.453C213.381 29.453 212.538 29.453 211.986 29.453C206.805 29.453 207.307 20.399 207.307 18.136C208.52 17.684 210.342 16.821 210.99 15.394C211.636 13.975 211.543 12.702 210.275 12.702C207.956 12.702 206.416 16.374 206.07 17.97C205.074 22.554 203.614 29.453 203.614 29.453H198.284L203.965 1.33198C203.965 1.33198 209.656 0.841977 208.644 5.86298C208.477 6.70598 207.909 9.19598 207.277 12.019C213.97 5.61098 217.649 11.199 215.327 15.049C214.939 15.693 213.753 17.114 212.32 17.793C212.32 22.491 213.181 26.709 215.662 26.709C218.066 26.709 219.337 22.251 219.337 22.251C219.337 22.251 220.127 22.251 221.008 22.251C220.004 24.622 217.57 29.453 213.656 29.453ZM195.033 29.453H189.371L192.368 15.095C192.368 15.095 192.387 12.703 190.701 12.703C188.382 12.703 186.174 16.374 185.827 17.97C184.832 22.554 183.371 29.453 183.371 29.453H178.042C178.434 26.881 182.052 9.21998 182.052 9.21998C182.052 9.21998 187.448 8.01198 187.035 12.019C193.728 5.61098 198.366 11.754 197.698 15.095C197.549 15.837 195.033 29.453 195.033 29.453ZM173.505 6.81898L174.508 1.33198C174.508 1.33198 180.199 0.841977 179.187 5.86298C179.069 6.63498 173.505 6.81898 173.505 6.81898ZM174.49 29.453H169.161C169.553 26.881 172.837 9.21998 172.837 9.21998H178.518L174.49 29.453ZM161.617 27.114C162.869 27.641 166.296 28.081 166.296 28.081L165.962 29.453C165.962 29.453 162.697 29.453 158.61 29.453C155.279 29.453 154.579 26.366 154.934 23.623C155.288 20.879 158.474 6.52398 158.61 5.78998C159.348 1.79298 165.293 1.33198 165.293 1.33198C165.293 1.33198 161.267 20.733 160.708 23.623C160.177 26.365 160.486 26.638 161.617 27.114Z" fill="#CCE8FF"/>
    <path fill-rule="evenodd" clip-rule="evenodd" d="M153.068 15.049C152.659 17.972 151.746 21.52 151.251 23.966C150.504 27.656 146.962 29.796 143.001 29.796C142.861 29.796 142.742 29.796 142.634 29.796C142.612 29.796 141.089 29.796 140.605 29.796C140.522 29.796 140.434 29.796 140.333 29.796C136.851 29.796 133.728 27.86 134.272 23.966C134.633 21.386 135.487 17.927 136.07 15.049C136.817 11.36 140.365 9.21997 144.331 9.21997C144.471 9.21997 144.589 9.21997 144.698 9.21997C144.72 9.21997 146.243 9.21997 146.728 9.21997C146.81 9.21997 146.899 9.21997 147 9.21997C150.486 9.21997 153.613 11.155 153.068 15.049ZM145.357 11.277C144.128 11.277 142.395 11.36 141.726 14.364C141.167 16.876 140.245 21.225 139.922 23.28C139.49 26.023 140.739 27.052 141.967 27.052C143.194 27.052 144.925 26.969 145.593 23.966C146.254 20.996 147.13 16.784 147.403 15.049C147.836 12.306 146.586 11.277 145.357 11.277ZM130.07 29.453H124.408L127.406 15.095C127.406 15.095 127.424 12.702 125.738 12.702C123.438 12.702 121.44 15.263 120.88 17.906C120.101 22.098 118.741 29.453 118.741 29.453H113.079L116.077 15.095C116.077 15.095 116.096 12.702 114.409 12.702C112.09 12.702 110.208 15.171 109.536 17.97C108.44 22.53 107.079 29.453 107.079 29.453H101.75C102.142 26.881 105.76 9.21997 105.76 9.21997C105.76 9.21997 111.156 8.01197 110.743 12.019C116.145 6.84697 120.207 9.85097 121.222 12.959C121.361 12.753 121.615 12.452 122.072 12.019C128.824 5.61097 133.403 11.754 132.735 15.095C132.587 15.837 130.07 29.453 130.07 29.453ZM99.4039 23.966C98.6569 27.656 95.1149 29.796 91.1529 29.796C91.0139 29.796 90.8949 29.796 90.7869 29.796C90.7649 29.796 89.2419 29.796 88.7579 29.796C88.6749 29.796 88.5859 29.796 88.4859 29.796C85.0039 29.796 81.8809 27.86 82.4249 23.966C82.7859 21.386 83.6399 17.927 84.2229 15.049C84.9699 11.36 88.5169 9.21997 92.4839 9.21997C92.6239 9.21997 92.7419 9.21997 92.8509 9.21997C92.8729 9.21997 94.3959 9.21997 94.8799 9.21997C94.9629 9.21997 95.0519 9.21997 95.1529 9.21997C98.6389 9.21997 101.766 11.155 101.221 15.049C100.811 17.972 99.8989 21.52 99.4039 23.966ZM93.5099 11.277C92.2809 11.277 90.5479 11.36 89.8789 14.364C89.3199 16.876 88.3979 21.225 88.0749 23.28C87.6429 26.023 88.8919 27.052 90.1189 27.052C91.3469 27.052 93.0779 26.969 93.7459 23.966C94.4069 20.996 95.2829 16.784 95.5559 15.049C95.9889 12.306 94.7389 11.277 93.5099 11.277ZM77.6399 14.707C77.6399 14.707 77.6399 13.747 77.6399 12.649C75.0119 12.649 72.9169 14.837 72.0839 17.933C70.8609 22.475 69.6189 29.453 69.6189 29.453H64.2729C64.6659 26.872 68.2829 9.21997 68.2829 9.21997C68.2829 9.21997 73.7059 7.98297 73.2949 11.963C76.1759 7.89397 82.3179 9.56197 82.3179 9.56197L80.9809 15.049L77.6399 14.707ZM62.0759 23.966C61.2819 27.656 57.6989 29.796 53.7209 29.796C53.5809 29.796 53.4619 29.796 53.3529 29.796C53.3309 29.796 53.1439 29.796 52.6579 29.796C52.5749 29.796 49.8119 29.796 49.7109 29.796C49.4939 30.864 49.1779 32.148 49.0429 32.882C48.3049 36.878 42.3589 37.34 42.3589 37.34C42.3589 37.34 46.3249 17.927 46.9449 15.049C47.7399 11.36 51.3269 9.21997 55.3099 9.21997C55.4499 9.21997 55.5689 9.21997 55.6779 9.21997C55.7009 9.21997 57.2239 9.21997 57.7109 9.21997C57.7939 9.21997 57.8829 9.21997 57.9849 9.21997C61.4849 9.21997 64.6019 11.155 64.0079 15.049C63.5609 17.972 62.6019 21.52 62.0759 23.966ZM56.3129 11.277C55.0779 11.277 53.3409 11.36 52.6329 14.364C52.0409 16.876 51.0629 21.225 50.7139 23.28C50.4079 25.078 50.0449 27.052 50.0449 27.052C50.0449 27.052 52.9619 27.052 53.3869 27.052C54.6189 27.052 55.6879 26.969 56.3949 23.966C57.0939 20.996 58.0239 16.784 58.3189 15.049C58.7869 12.306 57.5469 11.277 56.3129 11.277Z" fill="white"/>
    <path fill-rule="evenodd" clip-rule="evenodd" d="M35.008 0L0 22.586L15.733 26.949L35.008 0Z" fill="white"/>
    <path fill-rule="evenodd" clip-rule="evenodd" d="M35.0079 0L33.0119 2.007L16.0119 25.007L15.7329 26.949L25.9589 39.01L35.0079 0Z" fill="#CCE8FF"/>
</svg>
